<svg width="36" height="36" viewBox="0 0 36 36" fill="none" xmlns="http://www.w3.org/2000/svg">
<rect x="0.5" y="0.5" width="35" height="35" rx="4.5" fill="white" fill-opacity="0.3" stroke="#545454"/>
<path fill-rule="evenodd" clip-rule="evenodd" d="M15.4453 11.6302C15.5689 11.4447 15.7771 11.3333 16 11.3333H20C20.2229 11.3333 20.4311 11.4447 20.5547 11.6302L21.6901 13.3333H24C24.5304 13.3333 25.0391 13.544 25.4142 13.9191C25.7893 14.2942 26 14.8029 26 15.3333V22.6667C26 23.1971 25.7893 23.7058 25.4142 24.0809C25.0391 24.4559 24.5304 24.6667 24 24.6667H12C11.4696 24.6667 10.9609 24.4559 10.5858 24.0809C10.2107 23.7058 10 23.1971 10 22.6667V15.3333C10 14.8029 10.2107 14.2942 10.5858 13.9191C10.9609 13.544 11.4696 13.3333 12 13.3333H14.3099L15.4453 11.6302ZM16.3568 12.6667L15.2214 14.3698C15.0977 14.5553 14.8896 14.6667 14.6667 14.6667H12C11.8232 14.6667 11.6536 14.7369 11.5286 14.8619C11.4036 14.9869 11.3333 15.1565 11.3333 15.3333V22.6667C11.3333 22.8435 11.4036 23.013 11.5286 23.1381C11.6536 23.2631 11.8232 23.3333 12 23.3333H24C24.1768 23.3333 24.3464 23.2631 24.4714 23.1381C24.5964 23.013 24.6667 22.8435 24.6667 22.6667V15.3333C24.6667 15.1565 24.5964 14.9869 24.4714 14.8619C24.3464 14.7369 24.1768 14.6667 24 14.6667H21.3333C21.1104 14.6667 20.9023 14.5553 20.7786 14.3698L19.6432 12.6667H16.3568Z" fill="#545454"/>
<path fill-rule="evenodd" clip-rule="evenodd" d="M17.9993 16.6667C16.8948 16.6667 15.9993 17.5621 15.9993 18.6667C15.9993 19.7712 16.8948 20.6667 17.9993 20.6667C19.1039 20.6667 19.9993 19.7712 19.9993 18.6667C19.9993 17.5621 19.1039 16.6667 17.9993 16.6667ZM14.666 18.6667C14.666 16.8257 16.1584 15.3333 17.9993 15.3333C19.8403 15.3333 21.3327 16.8257 21.3327 18.6667C21.3327 20.5076 19.8403 22 17.9993 22C16.1584 22 14.666 20.5076 14.666 18.6667Z" fill="#545454"/>
</svg>
