<svg width="22" height="22" viewBox="0 0 22 22" fill="none" xmlns="http://www.w3.org/2000/svg">
<g id="Frame">
<path id="Vector" d="M3.4375 5.5C3.4375 4.95299 3.6548 4.42839 4.04159 4.04159C4.42839 3.6548 4.95299 3.4375 5.5 3.4375H7.5625C8.10951 3.4375 8.63411 3.6548 9.02091 4.04159C9.4077 4.42839 9.625 4.95299 9.625 5.5V7.5625C9.625 8.10951 9.4077 8.63411 9.02091 9.02091C8.63411 9.4077 8.10951 9.625 7.5625 9.625H5.5C4.95299 9.625 4.42839 9.4077 4.04159 9.02091C3.6548 8.63411 3.4375 8.10951 3.4375 7.5625V5.5ZM3.4375 14.4375C3.4375 13.8905 3.6548 13.3659 4.04159 12.9791C4.42839 12.5923 4.95299 12.375 5.5 12.375H7.5625C8.10951 12.375 8.63411 12.5923 9.02091 12.9791C9.4077 13.3659 9.625 13.8905 9.625 14.4375V16.5C9.625 17.047 9.4077 17.5716 9.02091 17.9584C8.63411 18.3452 8.10951 18.5625 7.5625 18.5625H5.5C4.95299 18.5625 4.42839 18.3452 4.04159 17.9584C3.6548 17.5716 3.4375 17.047 3.4375 16.5V14.4375ZM12.375 5.5C12.375 4.95299 12.5923 4.42839 12.9791 4.04159C13.3659 3.6548 13.8905 3.4375 14.4375 3.4375H16.5C17.047 3.4375 17.5716 3.6548 17.9584 4.04159C18.3452 4.42839 18.5625 4.95299 18.5625 5.5V7.5625C18.5625 8.10951 18.3452 8.63411 17.9584 9.02091C17.5716 9.4077 17.047 9.625 16.5 9.625H14.4375C13.8905 9.625 13.3659 9.4077 12.9791 9.02091C12.5923 8.63411 12.375 8.10951 12.375 7.5625V5.5Z" stroke="white" stroke-width="1.5" stroke-linecap="round" stroke-linejoin="round"/>
<path id="Vector_2" d="M12.9791 12.9791C12.5923 13.3659 12.375 13.8905 12.375 14.4375V16.5C12.375 17.047 12.5923 17.5716 12.9791 17.9584C13.3659 18.3452 13.8905 18.5625 14.4375 18.5625H16.5C17.047 18.5625 17.5716 18.3452 17.9584 17.9584C18.3452 17.5716 18.5625 17.047 18.5625 16.5V14.4375C18.5625 13.8905 18.3452 13.3659 17.9584 12.9791C17.5716 12.5923 17.047 12.375 16.5 12.375H14.4375C13.8905 12.375 13.3659 12.5923 12.9791 12.9791Z" stroke="#E38CFA" stroke-width="1.5" stroke-linecap="round" stroke-linejoin="round"/>
</g>
</svg>
