<svg width="48" height="49" viewBox="0 0 48 49" fill="none" xmlns="http://www.w3.org/2000/svg">
<path d="M2.31483 45.8493V43.6161V37.8445V29.9115V21.2061V13.1354V7.0225C2.31483 6.10647 2.3078 5.19638 2.31483 4.28037C2.32187 3.13686 3.37695 2.22084 4.72041 2.2088C5.07915 2.20281 5.43787 2.2088 5.79661 2.2088H12.0216H21.4611H31.5618H39.6789C40.8465 2.2088 42.0141 2.19682 43.1817 2.2088C44.5322 2.22077 45.5733 3.14878 45.5802 4.2923V5.19636V9.83643V17.1467V25.7323V34.2102V41.1972V45.2984V45.8492C45.9812 45.7055 46.3821 45.5678 46.783 45.4241C44.6096 43.8495 42.4361 42.2748 40.2626 40.7062C39.9531 40.4847 39.6507 40.2631 39.3412 40.0356C39.0598 39.8321 38.6167 39.7842 38.3494 40.0356C36.176 42.0653 34.0024 44.0889 31.829 46.1185C31.5195 46.4059 31.21 46.6933 30.9076 46.9807H31.8993C29.7259 44.951 27.5524 42.9274 25.3789 40.8978C25.0695 40.6104 24.76 40.323 24.4575 40.0356C24.2113 39.8021 23.7119 39.8021 23.4657 40.0356C21.2923 42.0653 19.1187 44.0889 16.9453 46.1185C16.6358 46.4059 16.3263 46.6933 16.0239 46.9807H17.0157C14.8422 44.951 12.6687 42.9274 10.4953 40.8978C10.1858 40.6104 9.87627 40.323 9.5738 40.0356C9.30652 39.7842 8.85635 39.8321 8.58203 40.0356C6.40861 41.6103 4.23505 43.1849 2.06163 44.7535C1.75214 44.9751 1.44968 45.1966 1.14018 45.4241C0.851792 45.6337 0.886957 46.0528 1.14018 46.2683C1.42858 46.5138 1.84358 46.4778 2.13196 46.2683C4.30538 44.6936 6.47894 43.119 8.65236 41.5504C8.96184 41.3289 9.26431 41.1073 9.5738 40.8798H8.58203C10.7555 42.9095 12.929 44.9331 15.1024 46.9627C15.4119 47.2501 15.7214 47.5375 16.0239 47.8249C16.2701 48.0584 16.7695 48.0584 17.0157 47.8249C19.1891 45.7952 21.3626 43.7716 23.536 41.742C23.8455 41.4546 24.155 41.1672 24.4575 40.8798H23.4657C25.6391 42.9095 27.8127 44.9331 29.9861 46.9627C30.2956 47.2501 30.6051 47.5375 30.9076 47.8249C31.1538 48.0584 31.6532 48.0584 31.8993 47.8249C34.0728 45.7952 36.2463 43.7716 38.4197 41.742C38.7292 41.4546 39.0387 41.1672 39.3412 40.8798H38.3494C40.5228 42.4545 42.6964 44.0291 44.8698 45.5977C45.1793 45.8193 45.4818 46.0408 45.7912 46.2683C46.2414 46.5916 46.9941 46.394 46.9941 45.8432V43.5681V37.7186V29.7018V20.9366V12.83V6.78299C46.9941 5.93881 47.0081 5.0946 46.9941 4.2504C46.9659 2.47224 45.2848 1.0293 43.1887 1.00532C42.8511 0.999335 42.5064 1.00532 42.1688 1.00532H35.9649H26.441H16.277H8.1458C7.0063 1.00532 5.85983 0.993347 4.72026 1.00532C2.62414 1.02927 0.943074 2.47815 0.92198 4.25632V5.04064V9.57889V16.8653V25.4928V34.0484V41.1193V45.2983V45.8492C0.907913 46.6215 2.31468 46.6215 2.31468 45.8492L2.31483 45.8493Z" fill="#BA27E1" stroke="#BA27E1" stroke-width="0.5"/>
<path d="M37.0686 19.4105H34.4693H28.1895H20.6279H14.0903H11.935C11.5984 19.4105 11.2404 19.3919 10.9038 19.4105H10.8537C11.09 19.5639 11.3335 19.722 11.5698 19.8755V14.267V13.4579C11.3335 13.6113 11.09 13.7694 10.8537 13.9229H13.453H19.7329H27.2944H33.8321H35.9874C36.3239 13.9229 36.682 13.9415 37.0185 13.9229H37.0686L36.3526 13.4579V19.0663V19.8755C36.3526 20.4754 37.7848 20.4754 37.7848 19.8755V14.267V13.4579C37.7848 13.2067 37.4554 12.9928 37.0687 12.9928H34.4693H28.1895H20.628H14.0903C13.0306 12.9928 11.9637 12.9649 10.9039 12.9928H10.8538C10.4671 12.9928 10.1377 13.2067 10.1377 13.4579V19.0663V19.8755C10.1377 20.1266 10.4671 20.3406 10.8538 20.3406H13.4531H19.7329H27.2945H33.8321C34.8919 20.3406 35.9588 20.3685 37.0186 20.3406H37.0687C37.9924 20.3406 37.9924 19.4104 37.0687 19.4104L37.0686 19.4105Z" fill="#E38CFA" stroke="#E38CFA" stroke-width="0.5"/>
<path d="M36.9967 27.612H34.4305H28.2306H20.7654H14.311C13.2647 27.612 12.2114 27.5696 11.1651 27.612H11.1156C10.2037 27.612 10.2037 29.0259 11.1156 29.0259H13.6818H19.8817H27.347H33.8014C34.8476 29.0259 35.9009 29.0684 36.9472 29.0259H36.9967C37.9087 29.0259 37.9087 27.612 36.9967 27.612Z" fill="#E38CFA" stroke="#E38CFA" stroke-width="0.5"/>
</svg>
