<svg width="25" height="24" viewBox="0 0 25 24" fill="none" xmlns="http://www.w3.org/2000/svg">
<g id="Frame">
<path id="Vector" d="M7.03516 3V5.25M17.5352 3V5.25M3.28516 18.75V7.5C3.28516 6.90326 3.52221 6.33097 3.94417 5.90901C4.36612 5.48705 4.93842 5.25 5.53516 5.25H19.0352C19.6319 5.25 20.2042 5.48705 20.6261 5.90901C21.0481 6.33097 21.2852 6.90326 21.2852 7.5V18.75M3.28516 18.75C3.28516 19.3467 3.52221 19.919 3.94417 20.341C4.36612 20.7629 4.93842 21 5.53516 21H19.0352C19.6319 21 20.2042 20.7629 20.6261 20.341C21.0481 19.919 21.2852 19.3467 21.2852 18.75M3.28516 18.75V11.25C3.28516 10.6533 3.52221 10.081 3.94417 9.65901C4.36612 9.23705 4.93842 9 5.53516 9H19.0352C19.6319 9 20.2042 9.23705 20.6261 9.65901C21.0481 10.081 21.2852 10.6533 21.2852 11.25V18.75" stroke="#A223C5" stroke-width="2" stroke-linecap="round" stroke-linejoin="round"/>
</g>
</svg>
