<svg width="17" height="16" viewBox="0 0 17 16" fill="none" xmlns="http://www.w3.org/2000/svg">
<g id="bxs:sort-alt">
<path id="Vector" d="M5.0608 7.33333H12.7588C13.3335 7.33333 13.6388 6.65333 13.2568 6.22333L9.40813 1.89333C9.34571 1.82287 9.26904 1.76645 9.18319 1.72782C9.09734 1.68918 9.00427 1.6692 8.91013 1.6692C8.81599 1.6692 8.72293 1.68918 8.63708 1.72782C8.55123 1.76645 8.47456 1.82287 8.41213 1.89333L4.56213 6.22333C4.18013 6.65333 4.48547 7.33333 5.0608 7.33333ZM8.41147 14.106C8.4739 14.1765 8.55057 14.2329 8.63641 14.2715C8.72226 14.3101 8.81533 14.3301 8.90947 14.3301C9.00361 14.3301 9.09668 14.3101 9.18252 14.2715C9.26837 14.2329 9.34504 14.1765 9.40747 14.106L13.2561 9.776C13.6388 9.34666 13.3335 8.66666 12.7581 8.66666H5.0608C4.48613 8.66666 4.1808 9.34666 4.5628 9.77666L8.41147 14.106Z" fill="#9E9E9E"/>
</g>
</svg>
