<svg width="25" height="24" viewBox="0 0 25 24" fill="none" xmlns="http://www.w3.org/2000/svg">
<g id="edit (1) 2">
<path id="Vector" d="M11.7129 4H4.71289C4.18246 4 3.67375 4.21071 3.29868 4.58579C2.9236 4.96086 2.71289 5.46957 2.71289 6V20C2.71289 20.5304 2.9236 21.0391 3.29868 21.4142C3.67375 21.7893 4.18246 22 4.71289 22H18.7129C19.2433 22 19.752 21.7893 20.1271 21.4142C20.5022 21.0391 20.7129 20.5304 20.7129 20V13" stroke="#A223C5" stroke-width="2" stroke-linecap="round" stroke-linejoin="round"/>
<path id="Vector_2" d="M19.2129 2.5C19.6107 2.10217 20.1503 1.87868 20.7129 1.87868C21.2755 1.87868 21.8151 2.10217 22.2129 2.5C22.6107 2.89782 22.8342 3.43739 22.8342 4C22.8342 4.56261 22.6107 5.10217 22.2129 5.5L12.7129 15L8.71289 16L9.71289 12L19.2129 2.5Z" stroke="#A223C5" stroke-width="2" stroke-linecap="round" stroke-linejoin="round"/>
</g>
</svg>
