<svg width="22" height="22" viewBox="0 0 22 22" fill="none" xmlns="http://www.w3.org/2000/svg">
<g id="Edit / 24 / Outline">
<path id="Vector" d="M4.875 16.2499H8.585C8.70016 16.2506 8.81431 16.2285 8.92092 16.185C9.02753 16.1415 9.12449 16.0773 9.20625 15.9962L15.2613 9.93245L17.7462 7.49995C17.8283 7.4186 17.8934 7.32183 17.9378 7.2152C17.9822 7.10857 18.0051 6.99421 18.0051 6.8787C18.0051 6.76319 17.9822 6.64882 17.9378 6.54219C17.8934 6.43556 17.8283 6.33879 17.7462 6.25745L14.0363 2.5037C13.9549 2.42168 13.8581 2.35659 13.7515 2.31217C13.6449 2.26774 13.5305 2.24487 13.415 2.24487C13.2995 2.24487 13.1851 2.26774 13.0785 2.31217C12.9719 2.35659 12.8751 2.42168 12.7937 2.5037L10.3263 4.97995L4.25375 11.0437C4.17265 11.1255 4.10849 11.2224 4.06495 11.329C4.02141 11.4356 3.99933 11.5498 4 11.6649V15.3749C4 15.607 4.09219 15.8296 4.25628 15.9937C4.42038 16.1578 4.64294 16.2499 4.875 16.2499ZM13.415 4.3587L15.8913 6.83495L14.6488 8.07745L12.1725 5.6012L13.415 4.3587ZM5.75 12.0237L10.9388 6.83495L13.415 9.3112L8.22625 14.4999H5.75V12.0237ZM18.875 17.9999H3.125C2.89294 17.9999 2.67038 18.0921 2.50628 18.2562C2.34219 18.4203 2.25 18.6429 2.25 18.8749C2.25 19.107 2.34219 19.3296 2.50628 19.4937C2.67038 19.6578 2.89294 19.7499 3.125 19.7499H18.875C19.1071 19.7499 19.3296 19.6578 19.4937 19.4937C19.6578 19.3296 19.75 19.107 19.75 18.8749C19.75 18.6429 19.6578 18.4203 19.4937 18.2562C19.3296 18.0921 19.1071 17.9999 18.875 17.9999Z" fill="#B822C5"/>
</g>
</svg>
