<svg width="25" height="24" viewBox="0 0 25 24" fill="none" xmlns="http://www.w3.org/2000/svg">
<g id="Frame">
<path id="Vector" d="M2.74902 12.322C2.68001 12.1146 2.68001 11.8904 2.74902 11.683C4.13602 7.51 8.07302 4.5 12.713 4.5C17.351 4.5 21.286 7.507 22.676 11.678C22.746 11.885 22.746 12.109 22.676 12.317C21.29 16.49 17.353 19.5 12.713 19.5C8.07502 19.5 4.13902 16.493 2.74902 12.322Z" stroke="#A223C5" stroke-width="2" stroke-linecap="round" stroke-linejoin="round"/>
<path id="Vector_2" d="M15.7129 12C15.7129 12.7956 15.3968 13.5587 14.8342 14.1213C14.2716 14.6839 13.5085 15 12.7129 15C11.9172 15 11.1542 14.6839 10.5916 14.1213C10.029 13.5587 9.71289 12.7956 9.71289 12C9.71289 11.2044 10.029 10.4413 10.5916 9.87868C11.1542 9.31607 11.9172 9 12.7129 9C13.5085 9 14.2716 9.31607 14.8342 9.87868C15.3968 10.4413 15.7129 11.2044 15.7129 12Z" stroke="#A223C5" stroke-width="2" stroke-linecap="round" stroke-linejoin="round"/>
</g>
</svg>
