<svg width="20" height="18" viewBox="0 0 20 18" fill="none" xmlns="http://www.w3.org/2000/svg">
<path d="M2.64833 5.53775C1.79074 6.54991 1.15216 7.72877 0.772827 9C1.95716 12.9765 5.64033 15.875 9.99999 15.875C10.9102 15.875 11.7902 15.7485 12.6244 15.5129M4.70899 3.709C6.2789 2.67299 8.11906 2.12209 9.99999 2.125C14.3597 2.125 18.0419 5.0235 19.2262 8.99817C18.5771 11.17 17.1839 13.0439 15.291 14.291M4.70899 3.709L1.74999 0.75M4.70899 3.709L8.05483 7.05483M15.291 14.291L18.25 17.25M15.291 14.291L11.9452 10.9452C12.2005 10.6898 12.4031 10.3866 12.5413 10.0529C12.6795 9.71925 12.7507 9.36162 12.7507 9.00046C12.7507 8.63929 12.6795 8.28166 12.5413 7.94799C12.4031 7.61432 12.2005 7.31113 11.9452 7.05575C11.6898 6.80037 11.3866 6.59779 11.0529 6.45957C10.7192 6.32136 10.3616 6.25023 10.0005 6.25023C9.63929 6.25023 9.28166 6.32136 8.94798 6.45957C8.61431 6.59779 8.31113 6.80037 8.05574 7.05575M11.9442 10.9443L8.05666 7.05667" stroke="#687787" stroke-width="1.5" stroke-linecap="round" stroke-linejoin="round"/>
</svg>
