<svg width="24" height="24" viewBox="0 0 24 24" fill="none" xmlns="http://www.w3.org/2000/svg">
<g id="Frame">
<g id="Group">
<path id="Vector" d="M22.5004 13.992C22.5003 13.5542 22.4043 13.1217 22.219 12.7251C22.0337 12.3284 21.7636 11.9772 21.4279 11.6962V8.0475C21.4279 6.267 20.1244 4.81875 18.5216 4.81875H16.9166C16.6177 4.81875 16.3459 4.6425 16.2255 4.3725C15.0337 1.62 8.98724 1.61925 7.78799 4.36912C7.72821 4.50291 7.63102 4.61657 7.50814 4.69641C7.38525 4.77625 7.24191 4.81886 7.09537 4.81912H5.49412C3.89137 4.81912 2.58787 6.267 2.58787 8.0475V11.6827C2.24767 11.9638 1.97377 12.3165 1.78577 12.7157C1.59777 13.1149 1.50031 13.5507 1.50037 13.992C1.49924 15.5201 1.50112 19.2836 1.50037 20.8515C1.50037 21.3214 1.92787 21.7039 2.45287 21.7039H3.78149C4.30649 21.7039 4.73324 21.3214 4.73324 20.8515V19.5941C4.73324 19.4209 4.95374 19.2686 5.20499 19.2686H18.7954C19.0466 19.2686 19.2671 19.4209 19.2671 19.5941V20.8515C19.2671 21.3214 19.6942 21.7039 20.2189 21.7039H21.5479C22.0729 21.7039 22.5 21.3214 22.5 20.8515L22.5004 13.992ZM5.49412 5.56875H7.09537C7.38695 5.56839 7.6722 5.4837 7.91673 5.32487C8.16126 5.16605 8.35462 4.93987 8.47349 4.67362C9.45224 2.5275 14.5646 2.523 15.5392 4.6755C15.6583 4.94131 15.8517 5.16704 16.096 5.32552C16.3404 5.48399 16.6254 5.56846 16.9166 5.56875H18.5216C19.7104 5.56875 20.6779 6.68062 20.6779 8.0475V11.2331C20.0989 10.9425 19.2026 10.989 18.5561 10.992V8.91825C18.5564 8.61699 18.4372 8.32791 18.2246 8.11447C18.012 7.90102 17.7234 7.78064 17.4221 7.77975H14.4896C14.1884 7.78064 13.8998 7.90102 13.6872 8.11447C13.4746 8.32791 13.3553 8.61699 13.3556 8.91825V10.992H10.6556V8.91825C10.6559 8.61705 10.5367 8.32803 10.3242 8.1146C10.1117 7.90116 9.82319 7.78074 9.52199 7.77975H6.58949C6.28823 7.78064 5.99963 7.90102 5.78703 8.11447C5.57443 8.32791 5.45519 8.61699 5.45549 8.91825V10.992C4.81762 10.9879 3.91574 10.9414 3.33787 11.2264V8.0475C3.33787 6.68062 4.30537 5.56875 5.49412 5.56875ZM17.8061 8.91825V10.992H14.1056V8.91825C14.1056 8.70412 14.2781 8.52975 14.4896 8.52975H17.4221C17.6336 8.52975 17.8061 8.70412 17.8061 8.91825ZM9.90599 8.91825V10.992H6.20549V8.91825C6.20549 8.70412 6.37799 8.52975 6.58949 8.52975H9.52199C9.73349 8.52975 9.90599 8.70412 9.90599 8.91825ZM21.7504 20.8515C21.7504 20.8815 21.6795 20.9539 21.5479 20.9539H20.2192C20.088 20.9539 20.0175 20.8811 20.0175 20.8515V19.5941C20.0175 19.0012 19.4692 18.5186 18.7957 18.5186H5.20537C4.53187 18.5186 3.98362 19.0012 3.98362 19.5941V20.8515C3.98362 20.8815 3.91274 20.9539 3.78187 20.9539H2.45249C2.32124 20.9539 2.25037 20.8811 2.25037 20.8515V15.8337H21.7504V20.8515ZM21.7504 16.0815H2.25037V13.992C2.25037 12.7507 3.25949 11.742 4.50037 11.742H19.5004C20.7412 11.742 21.7504 12.7507 21.7504 13.992V16.0815Z" fill="#EFEFEF" stroke="#EFEFEF" stroke-width="0.5"/>
</g>
<path id="Line 92" d="M2 16.25H22" stroke="#E38CFA" stroke-width="1.5" stroke-linecap="round"/>
</g>
</svg>
