<svg width="25" height="24" viewBox="0 0 25 24" fill="none" xmlns="http://www.w3.org/2000/svg">
<g id="trash-2 2">
<path id="Vector" d="M3.71289 6H5.71289H21.7129" stroke="#E13337" stroke-width="2" stroke-linecap="round" stroke-linejoin="round"/>
<path id="Vector_2" d="M8.71289 6V4C8.71289 3.46957 8.9236 2.96086 9.29868 2.58579C9.67375 2.21071 10.1825 2 10.7129 2H14.7129C15.2433 2 15.752 2.21071 16.1271 2.58579C16.5022 2.96086 16.7129 3.46957 16.7129 4V6M19.7129 6V20C19.7129 20.5304 19.5022 21.0391 19.1271 21.4142C18.752 21.7893 18.2433 22 17.7129 22H7.71289C7.18246 22 6.67375 21.7893 6.29868 21.4142C5.9236 21.0391 5.71289 20.5304 5.71289 20V6H19.7129Z" stroke="#E13337" stroke-width="2" stroke-linecap="round" stroke-linejoin="round"/>
<path id="Vector_3" d="M10.7129 11V17" stroke="#E13337" stroke-width="2" stroke-linecap="round" stroke-linejoin="round"/>
<path id="Vector_4" d="M14.7129 11V17" stroke="#E13337" stroke-width="2" stroke-linecap="round" stroke-linejoin="round"/>
</g>
</svg>
