<svg width="18" height="18" viewBox="0 0 18 18" fill="none" xmlns="http://www.w3.org/2000/svg">
<path fill-rule="evenodd" clip-rule="evenodd" d="M6.1875 5.0625C6.1875 4.31658 6.48382 3.60121 7.01126 3.07376C7.53871 2.54632 8.25408 2.25 9 2.25C9.74592 2.25 10.4613 2.54632 10.9887 3.07376C11.5162 3.60121 11.8125 4.31658 11.8125 5.0625C11.8125 5.80842 11.5162 6.52379 10.9887 7.05124C10.4613 7.57868 9.74592 7.875 9 7.875C8.25408 7.875 7.53871 7.57868 7.01126 7.05124C6.48382 6.52379 6.1875 5.80842 6.1875 5.0625ZM11.8125 7.3125C11.8125 6.71576 12.0496 6.14347 12.4715 5.72151C12.8935 5.29955 13.4658 5.0625 14.0625 5.0625C14.6592 5.0625 15.2315 5.29955 15.6535 5.72151C16.0754 6.14347 16.3125 6.71576 16.3125 7.3125C16.3125 7.90924 16.0754 8.48153 15.6535 8.90349C15.2315 9.32545 14.6592 9.5625 14.0625 9.5625C13.4658 9.5625 12.8935 9.32545 12.4715 8.90349C12.0496 8.48153 11.8125 7.90924 11.8125 7.3125ZM1.6875 7.3125C1.6875 6.71576 1.92455 6.14347 2.34651 5.72151C2.76847 5.29955 3.34076 5.0625 3.9375 5.0625C4.53424 5.0625 5.10653 5.29955 5.52849 5.72151C5.95045 6.14347 6.1875 6.71576 6.1875 7.3125C6.1875 7.90924 5.95045 8.48153 5.52849 8.90349C5.10653 9.32545 4.53424 9.5625 3.9375 9.5625C3.34076 9.5625 2.76847 9.32545 2.34651 8.90349C1.92455 8.48153 1.6875 7.90924 1.6875 7.3125ZM4.7325 11.3377C5.18996 10.6208 5.82081 10.0307 6.56672 9.62208C7.31262 9.21347 8.14951 8.99952 9 9C9.71237 8.99935 10.4168 9.14916 11.0673 9.43962C11.7178 9.73008 12.2995 10.1547 12.7745 10.6855C13.2496 11.2164 13.6071 11.8416 13.8237 12.5202C14.0404 13.1989 14.1113 13.9156 14.0317 14.6235C14.022 14.7114 13.9917 14.7959 13.9432 14.8699C13.8947 14.9439 13.8295 15.0054 13.7528 15.0495C12.3064 15.8794 10.6675 16.3149 9 16.3125C7.27125 16.3125 5.6475 15.8535 4.24725 15.0495C4.17052 15.0054 4.10526 14.9439 4.05678 14.8699C4.0083 14.7959 3.97797 14.7114 3.96825 14.6235C3.84229 13.4735 4.11185 12.3148 4.7325 11.3385V11.3377Z" fill="#853B96"/>
<path d="M3.81156 10.6905C3.07188 11.8323 2.72725 13.1852 2.83056 14.5417C2.38019 14.4735 1.93724 14.363 1.50756 14.2117L1.42131 14.1817C1.34436 14.1544 1.27697 14.1054 1.22732 14.0406C1.17767 13.9757 1.14788 13.8979 1.14156 13.8165L1.13406 13.7257C1.10376 13.3492 1.14963 12.9704 1.26891 12.612C1.3882 12.2536 1.57846 11.9229 1.82835 11.6396C2.07824 11.3563 2.38264 11.1263 2.72337 10.9632C3.0641 10.8002 3.43419 10.7074 3.81156 10.6905ZM15.1696 14.5417C15.2729 13.1852 14.9282 11.8323 14.1886 10.6905C14.5659 10.7074 14.936 10.8002 15.2767 10.9632C15.6175 11.1263 15.9219 11.3563 16.1718 11.6396C16.4217 11.9229 16.6119 12.2536 16.7312 12.612C16.8505 12.9704 16.8964 13.3492 16.8661 13.7257L16.8586 13.8165C16.8521 13.8978 16.8222 13.9755 16.7726 14.0401C16.723 14.1048 16.6557 14.1537 16.5788 14.181L16.4926 14.211C16.0673 14.361 15.6256 14.4727 15.1696 14.5417Z" fill="#853B96"/>
</svg>
