<svg width="24" height="24" viewBox="0 0 24 24" fill="none" xmlns="http://www.w3.org/2000/svg">
<g id="youtube 1">
<path id="Exclude" fill-rule="evenodd" clip-rule="evenodd" d="M21.8387 5.15941C22.1794 5.51057 22.4213 5.94541 22.5401 6.42C22.8573 8.1787 23.0113 9.96295 23.0001 11.75C23.0064 13.5103 22.8524 15.2676 22.5401 17C22.4213 17.4746 22.1794 17.9094 21.8387 18.2606C21.4981 18.6118 21.0708 18.8668 20.6001 19C18.8801 19.46 12.0001 19.46 12.0001 19.46C12.0001 19.46 5.12008 19.46 3.40008 19C2.9389 18.8738 2.51806 18.6308 2.17823 18.2945C1.83839 17.9581 1.59104 17.5398 1.46008 17.08C1.14285 15.3213 0.988863 13.537 1.00008 11.75C0.991319 9.97631 1.1453 8.20556 1.46008 6.46C1.57887 5.98541 1.8208 5.55057 2.16143 5.19941C2.50206 4.84824 2.92933 4.59318 3.40008 4.46C5.12008 4 12.0001 4 12.0001 4C12.0001 4 18.8801 4 20.6001 4.42C21.0708 4.55318 21.4981 4.80824 21.8387 5.15941ZM9.99717 8.04535C9.8424 7.95733 9.6525 7.95826 9.49859 8.04778C9.34468 8.13731 9.25 8.30193 9.25 8.47998V15.02C9.25 15.198 9.34468 15.3626 9.49859 15.4522C9.6525 15.5417 9.8424 15.5426 9.99717 15.4546L15.7472 12.1846C15.9035 12.0957 16 11.9298 16 11.75C16 11.5702 15.9035 11.4042 15.7472 11.3153L9.99717 8.04535ZM14.4886 11.75L10.25 14.1604V9.33953L14.4886 11.75Z" fill="white"/>
</g>
</svg>
